<?xml version="1.0" encoding="UTF-8" standalone="no"?><!-- Generator: Gravit.io --><svg xmlns="http://www.w3.org/2000/svg" xmlns:xlink="http://www.w3.org/1999/xlink" style="isolation:isolate" viewBox="0 0 512 512" width="512pt" height="512pt"><defs><clipPath id="_clipPath_NDRzk0mxrhmeNEMKOjqlNdH1WkDtvjgN"><rect width="512" height="512"/></clipPath></defs><g clip-path="url(#_clipPath_NDRzk0mxrhmeNEMKOjqlNdH1WkDtvjgN)"><path d=" M 30.225 256.449 C 30.225 250.756 32.322 245.663 36.217 241.468 C 40.113 237.273 44.907 235.175 50.6 235.175 C 56.293 235.175 61.387 237.273 65.282 241.468 C 69.177 245.663 71.275 250.457 71.275 256.449 C 71.275 262.143 69.177 266.937 65.282 270.832 C 61.387 274.727 56.293 276.825 50.899 276.825 C 45.506 276.825 40.412 274.727 36.517 270.832 C 32.022 266.637 30.225 261.843 30.225 256.449 Z  M 89.552 256.449 C 89.552 250.756 91.65 245.663 95.545 241.468 C 99.44 237.273 104.235 235.175 109.928 235.175 L 206.71 235.175 L 138.393 166.858 C 134.198 163.263 132.101 158.469 132.101 152.776 C 132.101 147.082 134.198 142.288 138.393 138.093 C 142.588 133.899 147.382 131.801 153.075 131.801 C 158.768 131.801 163.562 133.899 167.757 138.093 L 235.775 206.111 L 235.775 109.928 C 235.775 104.235 237.872 99.141 242.067 94.946 C 246.262 90.751 251.056 88.654 257.049 88.654 C 262.742 88.654 267.536 90.751 271.431 94.946 C 275.326 99.141 277.424 103.935 277.424 109.928 L 277.424 206.71 L 346.04 137.794 C 350.235 133.599 355.03 131.501 360.423 131.501 C 365.816 131.501 370.91 133.599 375.105 137.794 C 378.701 141.989 380.499 146.783 380.499 152.476 C 380.499 158.169 378.701 162.963 375.105 166.559 L 306.788 234.876 L 403.57 234.876 C 408.964 234.876 413.758 236.973 417.653 241.168 C 421.549 245.363 423.646 250.157 423.646 256.15 C 423.646 261.543 421.549 266.337 417.653 270.233 C 413.758 274.128 408.964 276.225 403.57 276.225 L 306.788 276.225 L 375.405 344.842 C 379 348.438 380.798 353.232 380.798 358.925 C 380.798 364.618 379 369.412 375.405 373.607 C 371.21 377.802 366.116 379.899 360.723 379.899 C 355.329 379.899 350.235 377.802 346.34 373.607 L 277.724 304.691 L 277.724 401.773 C 277.724 407.466 275.626 412.56 271.731 416.455 C 267.836 420.35 263.041 422.448 257.348 422.448 C 251.655 422.448 246.561 420.35 242.367 416.455 C 238.172 412.56 236.074 407.466 236.074 401.773 L 236.074 305.29 L 168.057 373.307 C 163.862 377.502 159.068 379.6 153.375 379.6 C 147.682 379.6 142.888 377.502 138.693 373.307 C 134.498 369.112 132.4 364.318 132.4 358.625 C 132.4 352.932 134.498 348.438 138.693 344.542 L 207.609 275.926 L 110.527 275.926 C 104.834 275.926 100.04 273.828 96.144 269.933 C 91.35 266.637 89.552 261.843 89.552 256.449 Z  M 89.852 401.473 C 89.852 396.08 91.95 390.986 96.144 387.091 C 99.74 382.896 104.534 380.798 110.227 380.798 C 115.92 380.798 120.715 382.896 124.909 387.091 C 129.104 391.285 131.202 396.08 131.202 401.473 C 131.202 406.866 129.104 411.96 124.909 415.856 C 120.715 420.05 115.92 422.148 110.227 422.148 C 104.534 422.148 99.74 420.05 96.144 415.856 C 91.95 411.96 89.852 407.166 89.852 401.473 Z  M 89.852 110.527 C 89.852 105.134 91.95 100.04 96.144 96.144 C 99.74 91.95 104.534 89.852 110.227 89.852 C 115.92 89.852 120.715 91.95 124.909 96.144 C 129.104 100.339 131.202 105.134 131.202 110.527 C 131.202 115.92 129.104 121.014 124.909 125.209 C 120.715 129.404 115.92 131.501 110.227 131.501 C 104.534 131.501 99.74 129.404 96.144 125.209 C 91.95 121.014 89.852 115.92 89.852 110.527 Z  M 235.175 461.4 C 235.175 456.007 237.273 451.213 241.468 447.317 C 245.663 443.422 250.457 441.325 256.449 441.325 C 262.143 441.325 266.937 443.422 270.832 447.317 C 274.727 451.213 276.825 456.007 276.825 461.4 C 276.825 467.093 274.727 472.187 270.832 476.082 C 266.937 479.978 262.143 482.075 256.449 482.075 C 250.756 482.075 245.663 479.978 241.468 476.082 C 237.273 472.187 235.175 467.393 235.175 461.4 Z  M 235.175 50.6 C 235.175 44.907 237.273 39.813 241.468 35.918 C 245.663 32.022 250.457 29.925 256.449 29.925 C 262.143 29.925 266.937 32.022 270.832 35.918 C 274.727 39.813 276.825 44.907 276.825 50.6 C 276.825 55.993 274.727 60.787 270.832 64.683 C 266.937 68.578 262.143 70.675 256.449 70.675 C 250.756 70.675 245.663 68.578 241.468 64.683 C 237.273 60.787 235.175 55.993 235.175 50.6 Z  M 381.098 401.473 C 381.098 396.08 383.195 390.986 387.39 387.091 C 390.986 382.896 395.78 380.798 401.473 380.798 C 407.166 380.798 411.96 382.896 416.155 387.091 C 420.35 391.285 422.447 396.08 422.447 401.473 C 422.447 406.866 420.35 411.96 416.155 415.856 C 411.96 420.05 407.166 422.148 401.473 422.148 C 395.78 422.148 390.986 420.05 387.39 415.856 C 383.195 411.96 381.098 407.166 381.098 401.473 Z  M 381.098 110.527 C 381.098 105.134 383.195 100.04 387.39 96.144 C 390.986 91.95 395.78 89.852 401.473 89.852 C 407.166 89.852 411.96 91.95 416.155 96.144 C 420.35 100.339 422.447 105.134 422.447 110.527 C 422.447 115.92 420.35 121.014 416.155 125.209 C 411.96 129.404 407.166 131.501 401.473 131.501 C 395.78 131.501 390.986 129.404 387.39 125.209 C 383.195 121.014 381.098 115.92 381.098 110.527 Z  M 441.025 256.449 C 441.025 250.756 443.122 245.663 447.018 241.468 C 450.913 237.273 456.007 235.175 461.7 235.175 C 467.093 235.175 471.887 237.273 475.783 241.468 C 479.678 245.663 481.775 250.457 481.775 256.449 C 481.775 261.843 479.678 266.637 475.783 270.532 C 471.887 274.428 467.093 276.525 461.7 276.525 C 456.007 276.525 450.913 274.428 447.018 270.532 C 443.122 266.637 441.025 261.843 441.025 256.449 Z " fill="rgb(64,145,108)"/></g></svg>