<?xml version="1.0" encoding="UTF-8" standalone="no"?><!-- Generator: Gravit.io --><svg xmlns="http://www.w3.org/2000/svg" xmlns:xlink="http://www.w3.org/1999/xlink" style="isolation:isolate" viewBox="0 0 512 512" width="512pt" height="512pt"><defs><clipPath id="_clipPath_fWjGrS9gmD1owDRO4nma3KkhbZkPJmfA"><rect width="512" height="512"/></clipPath></defs><g clip-path="url(#_clipPath_fWjGrS9gmD1owDRO4nma3KkhbZkPJmfA)"><path d=" M 84.784 307.053 C 84.784 337.258 92.336 365.493 107.766 391.429 C 123.197 417.366 143.881 438.378 170.146 453.809 C 196.411 469.24 224.646 477.119 255.179 477.119 C 285.712 477.119 314.276 469.24 340.869 453.809 C 367.462 438.378 388.475 417.366 403.905 391.429 C 419.336 365.164 427.216 337.258 427.216 307.053 C 427.216 287.354 421.634 264.044 410.143 236.794 C 398.652 209.544 384.863 184.263 368.776 161.282 C 354.33 142.568 337.258 121.884 317.559 99.559 C 297.86 77.233 263.387 42.76 255.508 34.881 L 213.483 77.233 C 193.128 96.932 173.429 119.586 154.715 145.522 C 136.001 171.459 119.586 199.366 105.797 229.242 C 91.351 259.119 84.784 285.056 84.784 307.053 Z " fill="rgb(64,145,108)"/></g></svg>