<?xml version="1.0" encoding="UTF-8" standalone="no"?><!-- Generator: Gravit.io --><svg xmlns="http://www.w3.org/2000/svg" xmlns:xlink="http://www.w3.org/1999/xlink" style="isolation:isolate" viewBox="0 0 512 512" width="512pt" height="512pt"><defs><clipPath id="_clipPath_sJh29jBC1DKQkr7BWnjovzOQjM2jBzdD"><rect width="512" height="512"/></clipPath></defs><g clip-path="url(#_clipPath_sJh29jBC1DKQkr7BWnjovzOQjM2jBzdD)"><path d=" M 9.218 281.347 C 9.218 285.399 10.737 288.691 13.523 291.477 C 16.309 294.262 19.854 295.529 23.653 295.529 L 99.118 295.529 C 102.663 295.529 105.956 294.516 108.741 292.237 C 111.527 289.957 113.046 287.172 113.806 283.626 L 136.598 150.169 L 177.622 483.939 C 178.129 487.484 179.901 490.523 182.434 493.056 C 184.966 495.335 188.005 496.601 191.551 496.601 C 195.349 496.601 198.641 495.335 201.174 493.056 C 203.706 490.776 205.479 487.738 206.238 483.939 L 237.893 239.056 L 264.23 309.963 C 265.243 312.749 266.763 315.028 269.295 316.801 C 271.827 318.573 274.36 319.333 277.399 319.333 L 278.665 319.333 C 281.704 319.08 284.489 318.067 286.769 316.041 C 289.301 314.015 290.82 311.483 291.58 308.191 L 330.326 134.468 L 348.306 468.238 C 348.559 471.783 349.825 475.076 352.104 477.608 C 354.384 480.14 357.422 481.66 361.221 481.913 C 364.766 482.166 368.059 481.407 370.844 479.381 C 373.63 477.355 375.402 474.569 376.415 471.024 L 418.2 295.275 L 488.347 295.275 C 492.399 295.275 495.691 294.009 498.477 291.224 C 501.263 288.438 502.782 285.146 502.782 281.094 C 502.782 277.042 501.263 273.75 498.477 270.964 C 495.691 268.179 492.146 266.659 488.347 266.659 L 406.551 266.659 C 403.259 266.659 400.22 267.672 397.688 269.698 C 395.155 271.724 393.383 274.257 392.623 277.549 L 371.604 367.195 L 353.371 28.867 C 353.117 25.322 351.851 22.03 349.319 19.497 C 346.786 16.965 343.748 15.446 340.202 15.446 C 336.657 15.192 333.365 15.952 330.326 18.231 C 327.287 20.51 325.514 23.296 324.755 26.841 L 274.107 253.997 L 244.731 173.974 C 243.718 170.935 241.692 168.656 238.653 166.883 C 235.614 165.11 232.575 164.351 229.536 164.857 C 226.244 165.11 223.459 166.63 221.18 168.909 C 218.9 171.188 217.381 174.227 216.874 177.519 L 192.057 367.702 L 153.311 49.633 C 152.552 46.088 151.032 43.049 148.5 40.77 C 145.967 38.49 142.928 37.224 139.383 36.971 C 135.838 36.718 132.546 37.731 129.76 40.01 C 126.974 42.289 125.202 45.075 124.695 48.873 L 87.216 266.913 L 23.653 266.913 C 19.601 266.913 16.309 268.432 13.523 271.218 C 10.737 274.003 9.218 277.295 9.218 281.347 Z " fill="rgb(64,145,108)"/></g></svg>