<?xml version="1.0" encoding="UTF-8" standalone="no"?><!-- Generator: Gravit.io --><svg xmlns="http://www.w3.org/2000/svg" xmlns:xlink="http://www.w3.org/1999/xlink" style="isolation:isolate" viewBox="0 0 512 512" width="512pt" height="512pt"><defs><clipPath id="_clipPath_ueh3vh88OVf9naxRrOTKqEqaCuDpZ4Y6"><rect width="512" height="512"/></clipPath></defs><g clip-path="url(#_clipPath_ueh3vh88OVf9naxRrOTKqEqaCuDpZ4Y6)"><path d=" M 231.305 99.412 C 221.096 99.412 213.192 104.022 207.594 112.914 L 148.318 211.049 C 126.912 226.526 108.8 239.699 92.993 250.237 C 78.833 260.775 71.259 266.373 70.6 266.703 C 63.684 271.642 59.403 274.936 58.086 276.253 C 56.11 278.229 54.793 279.875 54.464 281.192 L 8.36 369.119 C 2.432 378.01 1.444 386.902 5.396 395.793 C 7.372 401.062 10.665 405.014 15.605 407.978 C 20.215 410.942 25.484 412.588 30.753 412.588 L 123.619 412.588 C 133.828 409.624 144.037 406.331 154.245 403.038 C 164.125 399.416 175.98 395.135 188.823 389.536 C 201.666 383.938 213.522 378.34 224.06 372.412 C 234.598 366.484 244.148 359.569 253.039 351.665 C 261.931 343.762 268.517 335.529 272.469 327.296 C 276.421 319.063 277.738 310.172 275.762 299.963 C 273.786 289.755 268.188 279.546 259.296 269.337 C 246.124 254.518 236.574 239.04 230.317 223.563 C 224.06 207.756 221.096 194.254 221.096 182.399 C 221.096 170.543 223.072 159.017 227.024 147.162 C 230.646 135.636 234.927 126.086 239.537 119.17 C 244.148 112.255 249.088 105.669 254.357 99.412 L 268.846 99.412 C 267.529 102.705 265.553 106.986 262.589 112.914 C 259.626 118.841 257.32 123.781 255.674 127.733 C 254.027 131.684 252.051 136.624 250.405 143.21 C 248.758 149.797 248.1 155.724 248.1 160.993 C 248.1 166.262 249.088 172.848 250.405 180.423 C 252.381 187.997 255.674 195.571 259.955 202.816 C 264.236 210.061 270.493 218.623 278.396 227.844 C 286.3 237.394 296.179 246.944 307.376 256.823 C 318.902 266.703 327.793 276.582 334.05 286.791 C 340.637 296.999 344.588 306.22 346.564 314.453 C 348.54 323.015 348.211 331.577 346.235 340.469 C 344.259 349.36 341.624 357.264 338.661 363.191 C 335.697 369.119 330.757 376.035 324.83 383.279 C 318.902 390.524 313.962 395.793 310.01 399.416 C 306.059 402.709 301.119 406.99 295.521 412.259 L 480.924 412.259 C 492.45 412.259 500.683 407.319 505.622 397.111 C 510.891 386.573 509.903 377.023 502.988 368.131 L 501.67 367.143 L 348.54 194.912 L 305.4 113.243 L 303.095 109.95 C 297.497 103.034 290.581 99.412 281.36 99.412 L 231.305 99.412 Z " fill="rgb(64,145,108)"/></g></svg>