<?xml version="1.0" encoding="UTF-8" standalone="no"?><!-- Generator: Gravit.io --><svg xmlns="http://www.w3.org/2000/svg" xmlns:xlink="http://www.w3.org/1999/xlink" style="isolation:isolate" viewBox="0 0 512 512" width="512pt" height="512pt"><defs><clipPath id="_clipPath_JISyDZ5T6605usPTwLhjo3G5q9OWFJPR"><rect width="512" height="512"/></clipPath></defs><g clip-path="url(#_clipPath_JISyDZ5T6605usPTwLhjo3G5q9OWFJPR)"><path d=" M 61.552 450.065 C 61.552 442.405 64.105 436.021 68.957 430.659 C 73.809 425.296 79.937 422.743 86.831 422.743 L 86.831 422.232 L 422.871 423.254 C 424.403 422.998 425.424 422.743 425.424 422.743 C 432.318 422.998 438.447 425.807 443.298 431.169 C 448.15 436.532 450.704 443.171 450.448 450.831 C 450.448 458.492 447.895 464.875 443.043 470.238 C 438.191 475.6 432.063 478.154 425.169 478.154 L 425.169 478.409 L 92.449 477.388 C 89.895 477.643 88.108 477.898 86.831 477.898 C 79.682 477.643 73.809 475.089 68.957 469.727 C 63.85 464.365 61.296 457.726 61.552 450.065 Z  M 82.49 310.645 C 82.235 299.665 83.512 286.897 86.576 271.832 C 88.108 264.171 91.683 252.425 97.811 236.849 C 98.322 235.572 99.599 233.274 101.131 229.699 C 101.386 230.21 101.897 230.465 102.152 230.976 C 102.408 231.487 102.663 231.487 102.663 231.742 C 105.472 242.977 109.557 253.191 115.175 262.384 C 120.537 270.555 127.432 276.683 136.114 280.003 C 142.753 282.812 152.201 284.344 164.202 284.599 C 164.713 284.599 165.479 284.599 166.245 284.599 C 167.011 284.599 167.777 284.599 168.288 284.599 C 159.861 276.173 153.222 267.491 148.115 259.064 C 140.455 245.786 135.603 230.465 133.56 212.846 C 132.028 199.057 132.794 182.46 135.858 162.798 C 136.369 158.967 138.922 150.286 143.263 137.007 C 147.094 125.006 152.456 114.026 159.606 104.323 C 167.777 91.811 179.523 79.043 195.099 65.765 C 204.547 57.849 217.825 48.657 234.934 38.443 C 236.721 37.421 239.53 35.634 243.871 33.591 C 243.871 34.102 243.871 34.612 243.871 34.868 C 243.871 35.123 243.871 35.634 243.871 35.889 L 243.871 36.4 C 237.743 50.955 233.402 65.765 231.359 80.575 C 229.827 94.109 231.87 106.621 237.487 118.367 C 241.828 127.559 249.744 137.518 260.979 147.732 C 263.277 150.03 268.384 155.137 276.3 162.542 C 283.961 169.947 290.089 175.82 294.175 179.906 L 300.558 186.29 C 307.197 176.586 311.028 165.096 311.794 151.818 C 312.815 137.773 311.794 122.452 308.219 105.855 C 308.219 105.599 308.219 104.833 308.474 103.046 C 308.985 103.557 311.794 105.599 316.135 109.174 C 330.434 121.942 341.159 133.433 348.819 143.391 C 361.076 159.223 370.013 174.288 375.886 187.822 C 380.738 199.568 383.802 211.314 385.59 223.571 C 387.122 234.295 387.632 243.233 387.377 250.382 C 387.122 270.3 384.824 286.897 380.993 300.431 C 379.206 305.793 377.674 310.134 376.142 313.709 C 382.525 311.921 388.143 309.623 392.739 307.07 C 399.123 302.984 404.23 297.622 408.06 290.217 C 412.146 282.812 415.465 274.385 417.764 265.193 C 417.764 264.937 418.019 264.427 418.53 263.916 C 418.785 264.427 419.04 265.193 419.806 266.214 C 420.317 267.235 420.828 268.001 421.083 268.767 C 424.403 276.683 426.701 284.854 427.977 293.536 C 430.02 303.24 430.531 312.687 430.02 322.391 C 429.51 329.796 428.233 336.69 425.935 343.074 C 423.892 349.202 421.849 354.054 420.317 357.884 C 415.465 367.587 410.358 376.014 404.485 382.908 C 402.953 384.696 401.677 386.228 400.911 386.994 L 120.027 386.994 C 119.771 386.739 119.261 386.228 118.239 385.462 C 117.218 384.696 116.707 384.185 116.196 383.674 C 109.557 377.291 102.408 367.587 95.258 354.82 C 93.215 350.99 90.662 345.117 87.853 337.201 C 84.789 329.285 83.001 320.348 82.49 310.645 Z " fill="rgb(64,145,108)"/></g></svg>